<svg xmlns="http://www.w3.org/2000/svg" width="200.271" height="31.891" viewBox="0 0 200.271 31.891">
  <g id="travel-tax-logo-horzontal" transform="translate(-40.355 -20.468)">
    <path id="Path_145872" data-name="Path 145872" d="M77.866,44.77a.636.636,0,0,1-.41.144H74.649c-.122,0-.2.067-.244.211l-.677,5.535a2.93,2.93,0,0,0-.033.5c0,.854.355,1.276,1.065,1.276h1.276a.393.393,0,0,1,.333.144.478.478,0,0,1,.089.388l-.532,4.548a.6.6,0,0,1-.566.566c-.921.067-1.8.111-2.629.111a8.7,8.7,0,0,1-4.226-.8,3.127,3.127,0,0,1-1.387-2.962q0-.283.067-1l1.032-8.308c0-.144-.055-.211-.177-.211H66.2a.47.47,0,0,1-.377-.144.442.442,0,0,1-.089-.388l.532-4.259a.575.575,0,0,1,.2-.388.636.636,0,0,1,.41-.144h1.808a.183.183,0,0,0,.211-.211l.532-4.226a.575.575,0,0,1,.2-.388A.591.591,0,0,1,70,34.62h5.18a.47.47,0,0,1,.377.144.451.451,0,0,1,.089.388l-.532,4.226c0,.144.055.211.177.211h2.84a.393.393,0,0,1,.333.144.442.442,0,0,1,.089.388l-.5,4.259a.575.575,0,0,1-.2.388Z" transform="translate(-25.368 -12.733)" fill="#234183"/>
    <path id="Path_145873" data-name="Path 145873" d="M91.039,39.335a.44.44,0,0,1,.211.388,1.029,1.029,0,0,1-.033.288L89.73,45.48a.55.55,0,0,1-.266.355.643.643,0,0,1-.41,0,4.819,4.819,0,0,0-1.1-.144A4.067,4.067,0,0,0,87,45.8a3.691,3.691,0,0,0-1.631.765,2.292,2.292,0,0,0-.821,1.575l-1.1,8.907a.575.575,0,0,1-.2.388.636.636,0,0,1-.41.144H77.407a.47.47,0,0,1-.377-.144.441.441,0,0,1-.089-.388L79.1,39.656a.607.607,0,0,1,.177-.388.556.556,0,0,1,.388-.144H85.1a.47.47,0,0,1,.377.144.442.442,0,0,1,.089.388l-.111.776c0,.211.067.244.211.111a4.648,4.648,0,0,1,3.583-1.664,3.079,3.079,0,0,1,1.775.466Z" transform="translate(-24.143 -12.267)" fill="#234183"/>
    <path id="Path_145874" data-name="Path 145874" d="M101.645,39.272a.591.591,0,0,1,.377-.144h5.469a.393.393,0,0,1,.333.144.478.478,0,0,1,.089.388l-2.13,17.393a.575.575,0,0,1-.2.388.591.591,0,0,1-.377.144H99.77a.47.47,0,0,1-.377-.144.442.442,0,0,1-.089-.388l.111-1c.022-.089,0-.155-.055-.177s-.111.011-.155.111a5.119,5.119,0,0,1-4.193,1.886,5.641,5.641,0,0,1-3.96-1.509,7.006,7.006,0,0,1-2.108-4.1,12,12,0,0,1-.144-1.986,16.359,16.359,0,0,1,.111-1.986,15.363,15.363,0,0,1,1.309-4.548,9.457,9.457,0,0,1,3.039-3.527,7.385,7.385,0,0,1,4.348-1.364,3.974,3.974,0,0,1,3.516,1.564c.044.1.089.133.144.111s.089-.089.111-.177l.067-.677a.575.575,0,0,1,.2-.388Zm-1.265,9.118q.067-.715.067-1.032a4.793,4.793,0,0,0-.288-1.708,1.749,1.749,0,0,0-1.664-1.1,2.177,2.177,0,0,0-1.952,1.176,6.388,6.388,0,0,0-.854,2.662q-.067.715-.067,1a4.474,4.474,0,0,0,.244,1.6,1.785,1.785,0,0,0,1.708,1.176,2.243,2.243,0,0,0,1.952-1.209,6.342,6.342,0,0,0,.854-2.551Z" transform="translate(-22.847 -12.271)" fill="#234183"/>
    <path id="Path_145875" data-name="Path 145875" d="M110.728,57.136,107.6,39.71v-.144q0-.466.532-.466h5.89a.485.485,0,0,1,.532.466l.743,8.7c0,.089.033.144.111.144s.122-.044.144-.144l2.873-8.7a.607.607,0,0,1,.643-.466l5.923.067a.4.4,0,0,1,.355.155.51.51,0,0,1,0,.444L118,57.125a.637.637,0,0,1-.643.422h-6.1a.5.5,0,0,1-.532-.422Z" transform="translate(-20.793 -12.243)" fill="#234183"/>
    <path id="Path_145876" data-name="Path 145876" d="M139.979,49.533a.513.513,0,0,1-.566.5H129.153c-.144,0-.211.055-.211.177a1.273,1.273,0,0,0,.177.71,2.241,2.241,0,0,0,1.1,1.009,4.182,4.182,0,0,0,1.919.41,5.15,5.15,0,0,0,1.753-.3,4.892,4.892,0,0,0,1.442-.8.583.583,0,0,1,.388-.144.414.414,0,0,1,.355.211l2.163,3.439a.537.537,0,0,1,.111.322.51.51,0,0,1-.211.422,9.024,9.024,0,0,1-3.25,1.8,12.961,12.961,0,0,1-3.882.588,9.5,9.5,0,0,1-5.324-1.387,6.717,6.717,0,0,1-2.806-3.938,8.585,8.585,0,0,1-.355-2.6,10.672,10.672,0,0,1,.067-1.387,13.083,13.083,0,0,1,1.1-3.971,10.236,10.236,0,0,1,3.583-4.226,9.192,9.192,0,0,1,5.213-1.531,7.326,7.326,0,0,1,4.027,1.12,7.575,7.575,0,0,1,2.729,3.05,9.6,9.6,0,0,1,.976,4.348,11.971,11.971,0,0,1-.244,2.163Zm-10.36-3.55-.177.355c-.044.166.011.244.177.244h3.871a.154.154,0,0,0,.177-.177l-.033-.422a1.537,1.537,0,0,0-.6-1.043,2.1,2.1,0,0,0-1.276-.377,2.331,2.331,0,0,0-2.13,1.42Z" transform="translate(-19.163 -12.272)" fill="#234183"/>
    <path id="Path_145877" data-name="Path 145877" d="M139.08,58.043a.442.442,0,0,1-.089-.388l2.951-23.782a.668.668,0,0,1,.177-.388.537.537,0,0,1,.388-.144h5.435a.47.47,0,0,1,.377.144.451.451,0,0,1,.089.388L145.5,57.655a.576.576,0,0,1-.2.388.636.636,0,0,1-.41.144h-5.435a.47.47,0,0,1-.377-.144Z" transform="translate(-17.365 -12.872)" fill="#234183"/>
    <path id="Path_145878" data-name="Path 145878" d="M159.916,44.77a.636.636,0,0,1-.41.144H156.7c-.122,0-.2.067-.244.211l-.677,5.535a2.93,2.93,0,0,0-.033.5c0,.854.355,1.276,1.065,1.276h1.276a.393.393,0,0,1,.333.144.478.478,0,0,1,.089.388l-.532,4.548a.6.6,0,0,1-.566.566c-.921.067-1.8.111-2.629.111a8.694,8.694,0,0,1-4.226-.8,3.127,3.127,0,0,1-1.387-2.962q0-.283.067-1l1.032-8.308c0-.144-.055-.211-.177-.211h-1.841a.47.47,0,0,1-.377-.144.442.442,0,0,1-.089-.388l.532-4.259a.576.576,0,0,1,.2-.388.636.636,0,0,1,.41-.144h1.808a.183.183,0,0,0,.211-.211l.532-4.226a.575.575,0,0,1,.2-.388.591.591,0,0,1,.377-.144h5.18a.47.47,0,0,1,.377.144.451.451,0,0,1,.089.388l-.532,4.226c0,.144.055.211.177.211h2.84a.393.393,0,0,1,.333.144.442.442,0,0,1,.089.388l-.5,4.259a.575.575,0,0,1-.2.388Z" transform="translate(-16.404 -12.733)" fill="#f47a21"/>
    <path id="Path_145879" data-name="Path 145879" d="M172.365,39.272a.591.591,0,0,1,.377-.144h5.469a.393.393,0,0,1,.333.144.478.478,0,0,1,.089.388L176.5,57.053a.575.575,0,0,1-.2.388.591.591,0,0,1-.377.144H170.49a.47.47,0,0,1-.377-.144.442.442,0,0,1-.089-.388l.111-1c.022-.089,0-.155-.055-.177s-.111.011-.155.111a5.119,5.119,0,0,1-4.193,1.886,5.641,5.641,0,0,1-3.96-1.509,7.005,7.005,0,0,1-2.108-4.1,12,12,0,0,1-.144-1.986,16.356,16.356,0,0,1,.111-1.986,15.364,15.364,0,0,1,1.309-4.548,9.456,9.456,0,0,1,3.039-3.527,7.385,7.385,0,0,1,4.348-1.364,3.974,3.974,0,0,1,3.516,1.564c.044.1.089.133.144.111s.089-.089.111-.177l.067-.677a.575.575,0,0,1,.2-.388ZM171.1,48.389q.067-.715.067-1.032a4.793,4.793,0,0,0-.288-1.708,1.749,1.749,0,0,0-1.664-1.1,2.177,2.177,0,0,0-1.952,1.176,6.388,6.388,0,0,0-.854,2.662q-.067.715-.067,1a4.474,4.474,0,0,0,.244,1.6,1.785,1.785,0,0,0,1.708,1.176,2.243,2.243,0,0,0,1.952-1.209A6.342,6.342,0,0,0,171.1,48.4Z" transform="translate(-15.121 -12.271)" fill="#f47a21"/>
    <path id="Path_145880" data-name="Path 145880" d="M176.4,57.281a1.884,1.884,0,0,1,.144-.355l6.389-8.452a.43.43,0,0,0,.033-.288l-4.293-8.452a1.7,1.7,0,0,1-.067-.244c0-.255.166-.388.5-.388h5.746a.572.572,0,0,1,.6.355L187.16,43a.139.139,0,0,0,.122.111c.055,0,.1-.033.122-.111l2.6-3.55a.709.709,0,0,1,.643-.355h6.212c.288,0,.422.089.422.288a1.145,1.145,0,0,1-.144.355L190.742,48.2c-.067.122-.089.211-.033.288L195,56.937a1.7,1.7,0,0,1,.067.244c0,.255-.166.388-.5.388h-5.79a.546.546,0,0,1-.566-.355l-1.708-3.55a.139.139,0,0,0-.122-.111.184.184,0,0,0-.155.111l-2.551,3.55a.789.789,0,0,1-.677.355h-6.178c-.288,0-.422-.089-.422-.288Z" transform="translate(-13.277 -12.243)" fill="#f47a21"/>
    <path id="Path_145881" data-name="Path 145881" d="M207.452,33.484a.591.591,0,0,1,.377-.144H213.3a.393.393,0,0,1,.333.144.49.49,0,0,1,.089.388l-2.906,23.782a.575.575,0,0,1-.2.388.591.591,0,0,1-.377.144H204.8a.47.47,0,0,1-.377-.144.442.442,0,0,1-.089-.388l.111-1c.022-.089,0-.155-.055-.177s-.111.011-.155.111a5.119,5.119,0,0,1-4.193,1.886,5.642,5.642,0,0,1-3.96-1.509,7.005,7.005,0,0,1-2.108-4.1,12,12,0,0,1-.144-1.986,16.363,16.363,0,0,1,.111-1.986,15.366,15.366,0,0,1,1.309-4.548,9.457,9.457,0,0,1,3.039-3.527,7.385,7.385,0,0,1,4.348-1.364,3.974,3.974,0,0,1,3.516,1.564c.044.1.089.133.144.111s.089-.089.111-.177l.854-7.066a.575.575,0,0,1,.2-.388Zm-2.041,15.507q.067-.715.066-1.032a4.793,4.793,0,0,0-.288-1.708,1.749,1.749,0,0,0-1.664-1.1,2.177,2.177,0,0,0-1.952,1.176,6.388,6.388,0,0,0-.854,2.662q-.067.715-.067,1a4.475,4.475,0,0,0,.244,1.6,1.785,1.785,0,0,0,1.708,1.176,2.243,2.243,0,0,0,1.952-1.209A6.343,6.343,0,0,0,205.411,49Z" transform="translate(-11.373 -12.872)" fill="#35bc9b"/>
    <path id="Path_145882" data-name="Path 145882" d="M224.655,39.272a.591.591,0,0,1,.377-.144H230.5a.393.393,0,0,1,.333.144.478.478,0,0,1,.089.388l-2.13,17.393a.576.576,0,0,1-.2.388.591.591,0,0,1-.377.144H222.78a.47.47,0,0,1-.377-.144.442.442,0,0,1-.089-.388l.111-1c.022-.089,0-.155-.055-.177s-.111.011-.155.111a5.119,5.119,0,0,1-4.193,1.886,5.642,5.642,0,0,1-3.96-1.509,7.006,7.006,0,0,1-2.108-4.1,12,12,0,0,1-.144-1.986,16.375,16.375,0,0,1,.111-1.986,15.366,15.366,0,0,1,1.309-4.548,9.457,9.457,0,0,1,3.039-3.527,7.385,7.385,0,0,1,4.348-1.364,3.974,3.974,0,0,1,3.516,1.564c.044.1.089.133.144.111s.089-.089.111-.177l.067-.677a.576.576,0,0,1,.2-.388Zm-1.265,9.118q.067-.715.067-1.032a4.794,4.794,0,0,0-.288-1.708,1.749,1.749,0,0,0-1.664-1.1,2.177,2.177,0,0,0-1.952,1.176,6.39,6.39,0,0,0-.854,2.662q-.067.715-.067,1a4.473,4.473,0,0,0,.244,1.6,1.785,1.785,0,0,0,1.708,1.176,2.243,2.243,0,0,0,1.952-1.209,6.34,6.34,0,0,0,.854-2.551Z" transform="translate(-9.409 -12.271)" fill="#35bc9b"/>
    <path id="Path_145883" data-name="Path 145883" d="M228.53,64.093l.532-4.4a.735.735,0,0,1,.155-.388.388.388,0,0,1,.3-.144,12.973,12.973,0,0,0,3.25-.288,1.61,1.61,0,0,0,1.22-1.176.352.352,0,0,1,.022-.144c.022-.055,0-.089-.022-.144L230.726,39.69v-.144q0-.466.532-.466h5.79q.5,0,.5.466l.677,9.373c.022.1.067.144.144.144s.122-.044.144-.144l2.984-9.373a.607.607,0,0,1,.643-.466h5.646c.288,0,.422.111.422.322l-.067.288-7.809,17.925a18.842,18.842,0,0,1-2.429,4.149,7.189,7.189,0,0,1-3.25,2.13,17.941,17.941,0,0,1-5.679.71h-.244c-.166,0-.222-.177-.177-.532Z" transform="translate(-7.582 -12.245)" fill="#35bc9b"/>
  </g>
</svg>
